<?xml version="1.0" encoding="utf-8"?>
<!-- Svg Vector Icons : http://www.onlinewebfonts.com/icon -->
<!DOCTYPE svg PUBLIC "-//W3C//DTD SVG 1.1//EN" "http://www.w3.org/Graphics/SVG/1.1/DTD/svg11.dtd">
<svg version="1.1" xmlns="http://www.w3.org/2000/svg" xmlns:xlink="http://www.w3.org/1999/xlink" x="0px" y="0px" viewBox="0 0 1000 1000" enable-background="new 0 0 1000 1000" xml:space="preserve">
<metadata> Svg Vector Icons : http://www.onlinewebfonts.com/icon </metadata>
<g><path d="M720.2,549c34.6-56.4,55.4-126.2,55.4-202.1C775.6,160.8,652.2,10,500,10c-152.2,0-275.6,150.8-275.6,336.9c0,76,20.8,145.8,55.4,202.1C137.4,616.5,40.6,747.4,40.6,898.1v30.6c0,33.9,27.4,61.3,61.3,61.3h796.2c33.9,0,61.3-27.4,61.3-61.3v-30.7C959.4,747.4,862.6,616.5,720.2,549z M500,101.9c99.6,0,183.7,112.2,183.7,245c0,132.8-84.2,245-183.7,245c-99.6,0-183.7-112.2-183.7-245C316.2,214,400.4,101.9,500,101.9z M132.5,898.1c0-121.5,85.5-226.6,208.9-276c44.9,38.7,99.5,61.7,158.6,61.7c59.1,0,113.8-23,158.6-61.7c123.4,49.5,208.9,154.5,208.9,276H132.5z"/></g>
</svg>